<svg id="White_Logo" data-name="White Logo" xmlns="http://www.w3.org/2000/svg" width="1267" height="1163" viewBox="0 0 1267 1163">
  <defs>
    <style>
      .cls-1 {
        fill: #19a94c;
      }

      .cls-1, .cls-2 {
        fill-rule: evenodd;
      }

      .cls-2 {
        fill: #eaeaea;
      }
    </style>
  </defs>
  <g>
    <path class="cls-1" d="M166,163H468V892L270,994Z"/>
    <path class="cls-2" d="M1028,163V385L840,481V163h188Z"/>
    <path class="cls-2" d="M743,163V532L565,623V163H743Z"/>
    <path class="cls-2" d="M743,844v206l-178,92V936Z"/>
    <path class="cls-2" d="M1028,697V904l-188,96V794Z"/>
    <path class="cls-1" d="M290,1163v-86l178-91v177H290Z"/>
    <path class="cls-2" d="M1115,434V558L840,701V575Z"/>
    <path class="cls-2" d="M743,625V751L565,842V717Z"/>
    <path class="cls-2" d="M221,894l15,118-102,53V939Z"/>
    <path class="cls-2" d="M1245,408l-105,55-7,22,20,6,107-57s41.89,114.07-74,163-198.451-186.775-93-229C1191.78,328.446,1245,408,1245,408Z"/>
    <path class="cls-2" d="M343.643,129.346A160.974,160.974,0,0,1,350.126,146H239.805a68.066,68.066,0,0,0-5.913-4.383,67.366,67.366,0,0,0-74.125,112.508c0.571,0.376,1.152.721,1.73,1.078l16.918,136.884-19.309-1.3c-8.821-.521-15.347-8.872-14.826-17.693l-2.288-24.687a161.8,161.8,0,0,1-32.767-16.244L88.4,345.552c-6.193,5.5-17.178,4.533-22.68-1.66l-32.1-36.714c-5.869-6.605-4.579-17.125,2.027-22.994l15.228-18.339a162.13,162.13,0,0,1-11.86-34.7l-0.019.2-24.482-5.325c-8.27-.488-15.352-8.941-14.864-17.211l3.266-48.655c0.521-8.822,8.871-15.347,17.693-14.827l23.656-2.192a161.813,161.813,0,0,1,17.067-34.7L47.959,87.627c-5.5-6.193-4.533-17.178,1.66-22.68l36.714-32.1c6.606-5.869,17.125-4.579,22.995,2.027l18.6,15.442A162.159,162.159,0,0,1,163.136,38.5l5.2-23.9c0.489-8.27,8.942-15.352,17.212-14.864L234.2,3.008c8.821,0.521,15.347,8.871,14.826,17.693l2.2,23.693a161.835,161.835,0,0,1,34.362,17.193c0.262,0.172.516,0.352,0.776,0.526l20.168-12.962c6.193-5.5,17.178-4.533,22.681,1.66L361.3,87.524c5.869,6.606,4.579,17.125-2.027,22.994Z"/>
  </g>
</svg>
