<svg id="White_Logo" data-name="White Logo" xmlns="http://www.w3.org/2000/svg" width="4659" height="1163" viewBox="0 0 4659 1163">
  <defs>
    <style>
      .cls-1 {
        fill: #19a94c;
      }

      .cls-1, .cls-2 {
        fill-rule: evenodd;
      }

      .cls-2 {
        fill: #eaeaea;
      }
    </style>
  </defs>
  <g>
    <path class="cls-1" d="M166,163H468V892L270,994Z"/>
    <path class="cls-2" d="M1028,163V385L840,481V163h188Z"/>
    <path class="cls-2" d="M743,163V532L565,623V163H743Z"/>
    <path class="cls-2" d="M743,844v206l-178,92V936Z"/>
    <path class="cls-2" d="M1028,697V904l-188,96V794Z"/>
    <path class="cls-1" d="M290,1163v-86l178-91v177H290Z"/>
    <path class="cls-2" d="M1115,434V558L840,701V575Z"/>
    <path class="cls-2" d="M743,625V751L565,842V717Z"/>
    <path class="cls-2" d="M221,894l15,118-102,53V939Z"/>
    <path class="cls-2" d="M1245,408l-105,55-7,22,20,6,107-57s41.89,114.07-74,163-198.451-186.775-93-229C1191.78,328.446,1245,408,1245,408Z"/>
    <path class="cls-2" d="M343.643,129.346A160.974,160.974,0,0,1,350.126,146H239.805a68.066,68.066,0,0,0-5.913-4.383,67.366,67.366,0,0,0-74.125,112.508c0.571,0.376,1.152.721,1.73,1.078l16.918,136.884-19.309-1.3c-8.821-.521-15.347-8.872-14.826-17.693l-2.288-24.687a161.8,161.8,0,0,1-32.767-16.244L88.4,345.552c-6.193,5.5-17.178,4.533-22.68-1.66l-32.1-36.714c-5.869-6.605-4.579-17.125,2.027-22.994l15.228-18.339a162.13,162.13,0,0,1-11.86-34.7l-0.019.2-24.482-5.325c-8.27-.488-15.352-8.941-14.864-17.211l3.266-48.655c0.521-8.822,8.871-15.347,17.693-14.827l23.656-2.192a161.813,161.813,0,0,1,17.067-34.7L47.959,87.627c-5.5-6.193-4.533-17.178,1.66-22.68l36.714-32.1c6.606-5.869,17.125-4.579,22.995,2.027l18.6,15.442A162.159,162.159,0,0,1,163.136,38.5l5.2-23.9c0.489-8.27,8.942-15.352,17.212-14.864L234.2,3.008c8.821,0.521,15.347,8.871,14.826,17.693l2.2,23.693a161.835,161.835,0,0,1,34.362,17.193c0.262,0.172.516,0.352,0.776,0.526l20.168-12.962c6.193-5.5,17.178-4.533,22.681,1.66L361.3,87.524c5.869,6.606,4.579,17.125-2.027,22.994Z"/>
  </g>
  <g>
    <path id="EAM" class="cls-1" d="M2874.92,605.076V367.886l-95.33,237.19h-81.38l-95.33-235.671V605.076h-76.34V292.541h124.01l88.68,228.309,88.03-228.309h124.01V605.076h-76.35Zm-485.64-60.007h-150.5l-24.2,60.007h-85.64l132.15-312.535h105.79l132.15,312.535h-85.64ZM2314.16,358.1l-47.33,117.38h94.49Zm-447.58,90.711-22.09-156.268h268.17v70.008H1930.64l8.33,55.006h162.84v62.507H1938.97l-8.33,55.006H2114.6v70.008H1844.49Z"/>
    <path id="T" class="cls-1" d="M1597.83,388.716l-0.93,384.5H1496.18l0.7-384.495H1318V292.593h456.49v96.123H1597.83Z"/>
    <path id="UNDEFINED" class="cls-2" d="M4637.5,951.827q-21.51,35.219-60.46,54.593t-90.49,19.37H4341.62V713.259h144.93q51.54,0,90.49,19.377t60.46,54.59q21.495,35.219,21.5,82.3T4637.5,951.827Zm-69.95-124.6a71.191,71.191,0,0,0-29.65-27.5q-19.185-9.786-45.15-9.793h-71.3V949.118h71.3q25.965,0,45.15-9.792a70.715,70.715,0,0,0,29.65-27.712q10.455-17.912,10.46-42.088Q4578.01,844.944,4567.55,827.23Zm-520.45,42.3-22.09-156.267h268.17v70.008H4111.16l8.33,55.006h162.84V900.78H4119.49l-8.33,55.006h183.96v70H4025.01Zm-311.95-63.435v219.7h-77.9V713.259h103.86l140.67,214.324V713.259h77.9V1025.79H3878.53Zm-212.36-92.832h80.22V1025.79h-80.22V713.259ZM3304.22,841.19h169.74v72.925H3304.22V1025.79H3224V713.259h257.32v72.925h-177.1V841.19Zm-374.73,28.336L2907.4,713.259h268.17v70.008H2993.55l8.32,55.006h162.85V900.78H3001.87l-8.32,55.006h183.96v70H2907.4ZM2796.37,1006.42q-38.955,19.365-90.49,19.37H2560.95V713.259h144.93q51.54,0,90.49,19.377t60.45,54.59q21.51,35.219,21.51,82.3t-21.51,82.3Q2835.31,987.046,2796.37,1006.42Zm-9.5-179.19a71.105,71.105,0,0,0-29.64-27.5q-19.185-9.786-45.15-9.793h-71.3V949.118h71.3q25.965,0,45.15-9.792a70.631,70.631,0,0,0,29.64-27.712q10.47-17.912,10.47-42.088Q2797.34,844.944,2786.87,827.23Zm-524.7-21.139v219.7h-77.9V713.259h103.86L2428.8,927.583V713.259h77.9V1025.79H2405.55ZM2064.14,1014.75q-32.94,17.715-77.11,17.71-43.8,0-76.93-17.71a127.744,127.744,0,0,1-51.54-49.588q-18.4-31.878-18.41-74.8v-177.1h80.22V886.2q0,21.252,7.56,36.879a53.377,53.377,0,0,0,22.48,23.961q14.91,8.34,36.62,8.334,22.08,0,36.81-8.334a52.551,52.551,0,0,0,22.09-23.961q7.365-15.627,7.36-36.879V713.259h80.61v177.1q0,42.924-18.41,74.8A128.074,128.074,0,0,1,2064.14,1014.75Z"/>
    <path class="cls-1" d="M1497.24,800.9h100.01V945.913l22,75.007H1474.24l23-74.007V800.9Z"/>
    <path class="cls-2" d="M1467.23,527.865h161.02L1606.37,801.9H1488.28Z"/>
  </g>
</svg>
